<mxfile host="app.diagrams.net" modified="2021-11-23T07:53:27.821Z" agent="5.0 (Windows NT 10.0; Win64; x64) AppleWebKit/537.36 (KHTML, like Gecko) Chrome/96.0.4664.45 Safari/537.36" etag="ssHUf6PC-WGrvr0u15zi" version="15.8.3" type="github">
  <diagram id="C5RBs43oDa-KdzZeNtuy" name="Page-1">
    <mxGraphModel dx="868" dy="1619" grid="1" gridSize="10" guides="1" tooltips="1" connect="1" arrows="1" fold="1" page="1" pageScale="1" pageWidth="827" pageHeight="1169" math="0" shadow="0">
      <root>
        <mxCell id="WIyWlLk6GJQsqaUBKTNV-0" />
        <mxCell id="WIyWlLk6GJQsqaUBKTNV-1" parent="WIyWlLk6GJQsqaUBKTNV-0" />
        <mxCell id="gokKkVFS87vz-7uS0kBq-3" value="" style="edgeStyle=orthogonalEdgeStyle;rounded=0;orthogonalLoop=1;jettySize=auto;html=1;" edge="1" parent="WIyWlLk6GJQsqaUBKTNV-1" source="gokKkVFS87vz-7uS0kBq-1">
          <mxGeometry relative="1" as="geometry">
            <mxPoint x="375" y="-200" as="targetPoint" />
          </mxGeometry>
        </mxCell>
        <mxCell id="gokKkVFS87vz-7uS0kBq-1" value="CONTACT MANAGEMENT SYSTEM" style="rounded=1;whiteSpace=wrap;html=1;" vertex="1" parent="WIyWlLk6GJQsqaUBKTNV-1">
          <mxGeometry x="250" y="-290" width="250" height="50" as="geometry" />
        </mxCell>
        <mxCell id="gokKkVFS87vz-7uS0kBq-5" value="MAIN MENU" style="rounded=1;whiteSpace=wrap;html=1;" vertex="1" parent="WIyWlLk6GJQsqaUBKTNV-1">
          <mxGeometry x="290" y="-200" width="180" height="40" as="geometry" />
        </mxCell>
        <mxCell id="gokKkVFS87vz-7uS0kBq-6" value="" style="endArrow=classic;html=1;rounded=0;exitX=0.5;exitY=1;exitDx=0;exitDy=0;" edge="1" parent="WIyWlLk6GJQsqaUBKTNV-1" source="gokKkVFS87vz-7uS0kBq-5">
          <mxGeometry width="50" height="50" relative="1" as="geometry">
            <mxPoint x="390" y="-60" as="sourcePoint" />
            <mxPoint x="380" y="-100" as="targetPoint" />
          </mxGeometry>
        </mxCell>
        <mxCell id="gokKkVFS87vz-7uS0kBq-29" value="" style="edgeStyle=orthogonalEdgeStyle;rounded=0;orthogonalLoop=1;jettySize=auto;html=1;" edge="1" parent="WIyWlLk6GJQsqaUBKTNV-1" source="gokKkVFS87vz-7uS0kBq-7" target="gokKkVFS87vz-7uS0kBq-28">
          <mxGeometry relative="1" as="geometry" />
        </mxCell>
        <mxCell id="gokKkVFS87vz-7uS0kBq-7" value="New contact" style="rounded=1;whiteSpace=wrap;html=1;" vertex="1" parent="WIyWlLk6GJQsqaUBKTNV-1">
          <mxGeometry x="50" y="-80" width="120" height="40" as="geometry" />
        </mxCell>
        <mxCell id="gokKkVFS87vz-7uS0kBq-8" value="" style="endArrow=none;html=1;rounded=0;" edge="1" parent="WIyWlLk6GJQsqaUBKTNV-1">
          <mxGeometry width="50" height="50" relative="1" as="geometry">
            <mxPoint x="110" y="-100" as="sourcePoint" />
            <mxPoint x="810" y="-100" as="targetPoint" />
          </mxGeometry>
        </mxCell>
        <mxCell id="gokKkVFS87vz-7uS0kBq-31" value="" style="edgeStyle=orthogonalEdgeStyle;rounded=0;orthogonalLoop=1;jettySize=auto;html=1;" edge="1" parent="WIyWlLk6GJQsqaUBKTNV-1" source="gokKkVFS87vz-7uS0kBq-9" target="gokKkVFS87vz-7uS0kBq-30">
          <mxGeometry relative="1" as="geometry" />
        </mxCell>
        <mxCell id="gokKkVFS87vz-7uS0kBq-9" value="List&amp;nbsp; all contact" style="rounded=1;whiteSpace=wrap;html=1;" vertex="1" parent="WIyWlLk6GJQsqaUBKTNV-1">
          <mxGeometry x="200" y="-80" width="120" height="40" as="geometry" />
        </mxCell>
        <mxCell id="gokKkVFS87vz-7uS0kBq-33" value="" style="edgeStyle=orthogonalEdgeStyle;rounded=0;orthogonalLoop=1;jettySize=auto;html=1;" edge="1" parent="WIyWlLk6GJQsqaUBKTNV-1" source="gokKkVFS87vz-7uS0kBq-11" target="gokKkVFS87vz-7uS0kBq-32">
          <mxGeometry relative="1" as="geometry" />
        </mxCell>
        <mxCell id="gokKkVFS87vz-7uS0kBq-11" value="Search for contact" style="rounded=1;whiteSpace=wrap;html=1;" vertex="1" parent="WIyWlLk6GJQsqaUBKTNV-1">
          <mxGeometry x="350" y="-80" width="120" height="40" as="geometry" />
        </mxCell>
        <mxCell id="gokKkVFS87vz-7uS0kBq-35" value="" style="edgeStyle=orthogonalEdgeStyle;rounded=0;orthogonalLoop=1;jettySize=auto;html=1;" edge="1" parent="WIyWlLk6GJQsqaUBKTNV-1" source="gokKkVFS87vz-7uS0kBq-13" target="gokKkVFS87vz-7uS0kBq-34">
          <mxGeometry relative="1" as="geometry" />
        </mxCell>
        <mxCell id="gokKkVFS87vz-7uS0kBq-13" value="Edit a contact" style="rounded=1;whiteSpace=wrap;html=1;" vertex="1" parent="WIyWlLk6GJQsqaUBKTNV-1">
          <mxGeometry x="490" y="-80" width="120" height="40" as="geometry" />
        </mxCell>
        <mxCell id="gokKkVFS87vz-7uS0kBq-37" value="" style="edgeStyle=orthogonalEdgeStyle;rounded=0;orthogonalLoop=1;jettySize=auto;html=1;" edge="1" parent="WIyWlLk6GJQsqaUBKTNV-1" source="gokKkVFS87vz-7uS0kBq-15" target="gokKkVFS87vz-7uS0kBq-36">
          <mxGeometry relative="1" as="geometry" />
        </mxCell>
        <mxCell id="gokKkVFS87vz-7uS0kBq-15" value="Delete a contact" style="rounded=1;whiteSpace=wrap;html=1;" vertex="1" parent="WIyWlLk6GJQsqaUBKTNV-1">
          <mxGeometry x="630" y="-80" width="120" height="40" as="geometry" />
        </mxCell>
        <mxCell id="gokKkVFS87vz-7uS0kBq-39" value="" style="edgeStyle=orthogonalEdgeStyle;rounded=0;orthogonalLoop=1;jettySize=auto;html=1;" edge="1" parent="WIyWlLk6GJQsqaUBKTNV-1" source="gokKkVFS87vz-7uS0kBq-17" target="gokKkVFS87vz-7uS0kBq-38">
          <mxGeometry relative="1" as="geometry" />
        </mxCell>
        <mxCell id="gokKkVFS87vz-7uS0kBq-17" value="Exit" style="rounded=1;whiteSpace=wrap;html=1;" vertex="1" parent="WIyWlLk6GJQsqaUBKTNV-1">
          <mxGeometry x="770" y="-80" width="110" height="40" as="geometry" />
        </mxCell>
        <mxCell id="gokKkVFS87vz-7uS0kBq-20" value="" style="endArrow=classic;html=1;rounded=0;entryX=0.25;entryY=0;entryDx=0;entryDy=0;" edge="1" parent="WIyWlLk6GJQsqaUBKTNV-1" target="gokKkVFS87vz-7uS0kBq-11">
          <mxGeometry width="50" height="50" relative="1" as="geometry">
            <mxPoint x="370" y="-100" as="sourcePoint" />
            <mxPoint x="510" y="-110" as="targetPoint" />
            <Array as="points">
              <mxPoint x="380" y="-100" />
            </Array>
          </mxGeometry>
        </mxCell>
        <mxCell id="gokKkVFS87vz-7uS0kBq-21" value="" style="endArrow=classic;html=1;rounded=0;entryX=0.583;entryY=0.05;entryDx=0;entryDy=0;entryPerimeter=0;" edge="1" parent="WIyWlLk6GJQsqaUBKTNV-1" target="gokKkVFS87vz-7uS0kBq-7">
          <mxGeometry width="50" height="50" relative="1" as="geometry">
            <mxPoint x="110" y="-100" as="sourcePoint" />
            <mxPoint x="510" y="-110" as="targetPoint" />
            <Array as="points">
              <mxPoint x="120" y="-100" />
            </Array>
          </mxGeometry>
        </mxCell>
        <mxCell id="gokKkVFS87vz-7uS0kBq-22" value="" style="endArrow=classic;html=1;rounded=0;entryX=0.5;entryY=0;entryDx=0;entryDy=0;" edge="1" parent="WIyWlLk6GJQsqaUBKTNV-1" target="gokKkVFS87vz-7uS0kBq-9">
          <mxGeometry width="50" height="50" relative="1" as="geometry">
            <mxPoint x="260" y="-100" as="sourcePoint" />
            <mxPoint x="510" y="-110" as="targetPoint" />
          </mxGeometry>
        </mxCell>
        <mxCell id="gokKkVFS87vz-7uS0kBq-23" value="" style="endArrow=classic;html=1;rounded=0;" edge="1" parent="WIyWlLk6GJQsqaUBKTNV-1">
          <mxGeometry width="50" height="50" relative="1" as="geometry">
            <mxPoint x="532" y="-100" as="sourcePoint" />
            <mxPoint x="532" y="-80" as="targetPoint" />
          </mxGeometry>
        </mxCell>
        <mxCell id="gokKkVFS87vz-7uS0kBq-26" value="" style="endArrow=classic;html=1;rounded=0;entryX=0.4;entryY=0;entryDx=0;entryDy=0;entryPerimeter=0;" edge="1" parent="WIyWlLk6GJQsqaUBKTNV-1" target="gokKkVFS87vz-7uS0kBq-15">
          <mxGeometry width="50" height="50" relative="1" as="geometry">
            <mxPoint x="680" y="-100" as="sourcePoint" />
            <mxPoint x="510" y="-110" as="targetPoint" />
          </mxGeometry>
        </mxCell>
        <mxCell id="gokKkVFS87vz-7uS0kBq-27" value="" style="endArrow=classic;html=1;rounded=0;entryX=0.25;entryY=0;entryDx=0;entryDy=0;" edge="1" parent="WIyWlLk6GJQsqaUBKTNV-1" target="gokKkVFS87vz-7uS0kBq-17">
          <mxGeometry width="50" height="50" relative="1" as="geometry">
            <mxPoint x="800" y="-100" as="sourcePoint" />
            <mxPoint x="510" y="-110" as="targetPoint" />
          </mxGeometry>
        </mxCell>
        <mxCell id="gokKkVFS87vz-7uS0kBq-41" value="" style="edgeStyle=orthogonalEdgeStyle;rounded=0;orthogonalLoop=1;jettySize=auto;html=1;" edge="1" parent="WIyWlLk6GJQsqaUBKTNV-1" source="gokKkVFS87vz-7uS0kBq-28" target="gokKkVFS87vz-7uS0kBq-40">
          <mxGeometry relative="1" as="geometry" />
        </mxCell>
        <mxCell id="gokKkVFS87vz-7uS0kBq-28" value="Add a new contact" style="rounded=1;whiteSpace=wrap;html=1;" vertex="1" parent="WIyWlLk6GJQsqaUBKTNV-1">
          <mxGeometry x="50" y="40" width="120" height="40" as="geometry" />
        </mxCell>
        <mxCell id="gokKkVFS87vz-7uS0kBq-30" value="All details should be displayed" style="rounded=1;whiteSpace=wrap;html=1;" vertex="1" parent="WIyWlLk6GJQsqaUBKTNV-1">
          <mxGeometry x="200" y="40" width="120" height="40" as="geometry" />
        </mxCell>
        <mxCell id="gokKkVFS87vz-7uS0kBq-32" value="search by name Where the contact details" style="rounded=1;whiteSpace=wrap;html=1;" vertex="1" parent="WIyWlLk6GJQsqaUBKTNV-1">
          <mxGeometry x="350" y="40" width="120" height="40" as="geometry" />
        </mxCell>
        <mxCell id="gokKkVFS87vz-7uS0kBq-34" value="old record to update new record" style="rounded=1;whiteSpace=wrap;html=1;" vertex="1" parent="WIyWlLk6GJQsqaUBKTNV-1">
          <mxGeometry x="490" y="40" width="120" height="40" as="geometry" />
        </mxCell>
        <mxCell id="gokKkVFS87vz-7uS0kBq-36" value="Delete the record by name" style="rounded=1;whiteSpace=wrap;html=1;" vertex="1" parent="WIyWlLk6GJQsqaUBKTNV-1">
          <mxGeometry x="630" y="40" width="120" height="40" as="geometry" />
        </mxCell>
        <mxCell id="gokKkVFS87vz-7uS0kBq-38" value="Exit go to planel" style="rounded=1;whiteSpace=wrap;html=1;" vertex="1" parent="WIyWlLk6GJQsqaUBKTNV-1">
          <mxGeometry x="770" y="40" width="110" height="40" as="geometry" />
        </mxCell>
        <mxCell id="gokKkVFS87vz-7uS0kBq-43" value="" style="edgeStyle=orthogonalEdgeStyle;rounded=0;orthogonalLoop=1;jettySize=auto;html=1;" edge="1" parent="WIyWlLk6GJQsqaUBKTNV-1" source="gokKkVFS87vz-7uS0kBq-40" target="gokKkVFS87vz-7uS0kBq-42">
          <mxGeometry relative="1" as="geometry" />
        </mxCell>
        <mxCell id="gokKkVFS87vz-7uS0kBq-40" value="Name" style="rounded=1;whiteSpace=wrap;html=1;" vertex="1" parent="WIyWlLk6GJQsqaUBKTNV-1">
          <mxGeometry x="50" y="110" width="120" height="40" as="geometry" />
        </mxCell>
        <mxCell id="gokKkVFS87vz-7uS0kBq-45" value="" style="edgeStyle=orthogonalEdgeStyle;rounded=0;orthogonalLoop=1;jettySize=auto;html=1;" edge="1" parent="WIyWlLk6GJQsqaUBKTNV-1" source="gokKkVFS87vz-7uS0kBq-42" target="gokKkVFS87vz-7uS0kBq-44">
          <mxGeometry relative="1" as="geometry" />
        </mxCell>
        <mxCell id="gokKkVFS87vz-7uS0kBq-42" value="Phone" style="rounded=1;whiteSpace=wrap;html=1;" vertex="1" parent="WIyWlLk6GJQsqaUBKTNV-1">
          <mxGeometry x="50" y="190" width="120" height="40" as="geometry" />
        </mxCell>
        <mxCell id="gokKkVFS87vz-7uS0kBq-47" value="" style="edgeStyle=orthogonalEdgeStyle;rounded=0;orthogonalLoop=1;jettySize=auto;html=1;" edge="1" parent="WIyWlLk6GJQsqaUBKTNV-1" source="gokKkVFS87vz-7uS0kBq-44" target="gokKkVFS87vz-7uS0kBq-46">
          <mxGeometry relative="1" as="geometry" />
        </mxCell>
        <mxCell id="gokKkVFS87vz-7uS0kBq-44" value="Address" style="rounded=1;whiteSpace=wrap;html=1;" vertex="1" parent="WIyWlLk6GJQsqaUBKTNV-1">
          <mxGeometry x="50" y="260" width="120" height="40" as="geometry" />
        </mxCell>
        <mxCell id="gokKkVFS87vz-7uS0kBq-46" value="Address" style="rounded=1;whiteSpace=wrap;html=1;" vertex="1" parent="WIyWlLk6GJQsqaUBKTNV-1">
          <mxGeometry x="50" y="330" width="120" height="40" as="geometry" />
        </mxCell>
      </root>
    </mxGraphModel>
  </diagram>
</mxfile>
